# xmcd
#
# Track frame offsets:
#	150
#	15573
#	32365
#	46484
#	59795
#	77582
#	96400
#	113727
#	131541
#	149598
#	164742
#	178542
#	194397
#	208197
#	222946
#	241810
#	259146
#	273770
#
# Disc length: 3799 seconds
#
# Revision: 2
# Processed by: cddbd v1.5.2PL0 Copyright (c) Steve Scherf et al.
# Submitted via: audiograbber 1.83.01
#
DISCID=0a0ed512
DTITLE=Various Artist - TT039
DYEAR=1900
DGENRE=Karaoke
TTITLE0=Brooks And Dunn - Ain't Nothing 'Bout You
TTITLE1=McCoy, Neal - Beatin' It In
TTITLE2=Chesney, Kenny - Don't Happen Twice
TTITLE3=Rascal Flatts - Everyday Love
TTITLE4=McGraw, Tim - Grown Men Don't Cry
TTITLE5=Strait, George - If You Can Do Anything Else
TTITLE6=Tritt, Travis - It's A Great Day To Be Alive
TTITLE7=Cagle, Chris - Laredo
TTITLE8=Soggy Bottom Boys - Man Of Constant Sorrow
TTITLE9=McGuinn, Mark - Ms Steven Rudy
TTITLE10=Tippen, Aaron - People Like Us
TTITLE11=Rascal Flatts - Praying For Daylight
TTITLE12=Allan, Gary - Right Where I Need To Be
TTITLE13=Walker, Clay - Say No More
TTITLE14=Paisley, Brad - Two People Fell In Love
TTITLE15=Lawrence, Tracy - Unforgiven
TTITLE16=Jackson, Alan - When Somebody Loves You
TTITLE17=Heatherly, Eric - Wrong 5 O' Clock
EXTD=
EXTT0=
EXTT1=
EXTT2=
EXTT3=
EXTT4=
EXTT5=
EXTT6=
EXTT7=
EXTT8=
EXTT9=
EXTT10=
EXTT11=
EXTT12=
EXTT13=
EXTT14=
EXTT15=
EXTT16=
EXTT17=
PLAYORDER=
